<svg width="46" height="46" viewBox="0 0 46 46" fill="none" xmlns="http://www.w3.org/2000/svg">
<path fill-rule="evenodd" clip-rule="evenodd" d="M23 46C35.7025 46 46 35.7025 46 23C46 10.2975 35.7025 0 23 0C10.2975 0 0 10.2975 0 23C0 35.7025 10.2975 46 23 46Z" fill="white"/>
<ellipse cx="14.7092" cy="31.1832" rx="6.1906" ry="6.19059" transform="rotate(-90 14.7092 31.1832)" fill="#FFC633"/>
<path d="M10.3462 21.8972L19.3812 21.8972C19.9335 21.8972 20.3812 21.4495 20.3812 20.8972L20.3812 11.4858C20.3812 10.585 19.2836 10.1434 18.6598 10.7933L9.62483 20.2047C9.01464 20.8403 9.46512 21.8972 10.3462 21.8972Z" fill="#FC6B6B"/>
<g clip-path="url(#clip0)">
<path d="M34.4707 9H25.8649C25.02 9 24.336 9.77509 24.336 10.7312V26.7806L24.3339 36.7504C24.3339 37.6488 25.3502 38.1127 25.9699 37.4983L35.4141 28.1429H35.412C35.769 27.8261 36.0006 27.335 36.0006 26.7817V10.7312C36.0006 9.77509 35.3155 9 34.4707 9Z" fill="#7359FF"/>
</g>
<defs>
<clipPath id="clip0">
<rect width="11.6667" height="28.7778" fill="white" transform="translate(24.3339 9)"/>
</clipPath>
</defs>
</svg>
